<svg id="Layer_1" data-name="Layer 1" xmlns="http://www.w3.org/2000/svg" viewBox="0 0 144 144"><defs><style>.cls-1{fill:#010101;}</style></defs><path class="cls-1" d="M51.27,70.24h1.87a1.75,1.75,0,0,0,1.57-.75,3.55,3.55,0,0,0,.5-2,2.91,2.91,0,0,0-.52-1.85,1.73,1.73,0,0,0-2.69,0,2.4,2.4,0,0,0-.51,1.58H47.62a5.42,5.42,0,0,1,.72-2.79,5.07,5.07,0,0,1,2-1.94,6.59,6.59,0,0,1,7.17.82,5.53,5.53,0,0,1,1.56,4.16,4.92,4.92,0,0,1-2.56,4.28,4.25,4.25,0,0,1,2.1,1.8,6.2,6.2,0,0,1-1,7.1,6.2,6.2,0,0,1-4.44,1.6A5.67,5.67,0,0,1,49,80.65a5.61,5.61,0,0,1-1.59-4.15h3.87a2.85,2.85,0,0,0,.56,1.79,1.74,1.74,0,0,0,1.42.72,1.89,1.89,0,0,0,1.58-.73,3.1,3.1,0,0,0,.58-2c0-2-.76-3-2.28-3h-1.9Z"/><path class="cls-1" d="M71.22,61.84v3.28H71a4.68,4.68,0,0,0-3.45,1.31A5.9,5.9,0,0,0,66,70a4,4,0,0,1,3.11-1.42,4,4,0,0,1,3.45,1.85,8.43,8.43,0,0,1,1.3,4.92,8.26,8.26,0,0,1-.74,3.53,5.78,5.78,0,0,1-2.07,2.44,5.42,5.42,0,0,1-3,.87,5.17,5.17,0,0,1-4.34-2.18,9.51,9.51,0,0,1-1.63-5.85V72.77a14.86,14.86,0,0,1,1-5.77,8.39,8.39,0,0,1,3-3.81,7.93,7.93,0,0,1,4.55-1.35Zm-3.32,10a1.73,1.73,0,0,0-1.24.46,3,3,0,0,0-.75,1.15v1.4A6.9,6.9,0,0,0,66.47,78a1.59,1.59,0,0,0,3,0A5.34,5.34,0,0,0,70,75.42a5.13,5.13,0,0,0-.58-2.6A1.72,1.72,0,0,0,67.9,71.81Z"/><path class="cls-1" d="M87.72,73.72A11.13,11.13,0,0,1,86.22,80a5.28,5.28,0,0,1-8.52.06A10.87,10.87,0,0,1,76.15,74V70.25A11.19,11.19,0,0,1,77.64,64a5.31,5.31,0,0,1,8.56,0,11,11,0,0,1,1.52,6.17Zm-3.88-4a10.14,10.14,0,0,0-.47-3.53A1.55,1.55,0,0,0,81.92,65q-1.85,0-1.91,4.3v5a10.34,10.34,0,0,0,.47,3.58A1.56,1.56,0,0,0,82,79a1.48,1.48,0,0,0,1.4-1.1,9.47,9.47,0,0,0,.49-3.37Z"/><path class="cls-1" d="M89.58,68A4.68,4.68,0,0,1,90.5,65a3.5,3.5,0,0,1,5.13,0,4.71,4.71,0,0,1,.93,3.09v.55a4.7,4.7,0,0,1-.92,3.08,3.53,3.53,0,0,1-5.14,0,4.67,4.67,0,0,1-.92-3.09Zm2.26.56c0,1.54.41,2.32,1.24,2.32s1.16-.65,1.22-1.93V68A3.59,3.59,0,0,0,94,66.29a1,1,0,0,0-1.82,0A3.73,3.73,0,0,0,91.84,68Z"/><path d="M44.18,71.13c-2.85.82-5.66,1.78-8.41,2.87a41.38,41.38,0,0,0-7.83,4,8.68,8.68,0,0,0-2.86,2.9,2.16,2.16,0,0,0-.16,1.62A3.45,3.45,0,0,0,26,83.91a13.39,13.39,0,0,0,3.59,2,35.21,35.21,0,0,0,4.09,1.41,124.42,124.42,0,0,0,17.27,3.28c5.84.77,11.72,1.34,17.61,1.82h0A2.25,2.25,0,1,1,68.17,97H68c-5.89-.86-11.78-1.81-17.65-3A130.06,130.06,0,0,1,33,89.51a39.59,39.59,0,0,1-4.22-1.76,15.07,15.07,0,0,1-3.93-2.62,4.93,4.93,0,0,1-1.38-2.23,3.58,3.58,0,0,1,.4-2.68A9.57,9.57,0,0,1,27.33,77a42.17,42.17,0,0,1,8.25-3.55Q39.82,72.09,44.18,71.13Z"/><polygon points="67.53 88.88 66.85 100.82 75.62 95.09 67.53 88.88"/><path d="M99.39,71.53q4,.89,8,2.13a52,52,0,0,1,7.77,3,17.49,17.49,0,0,1,3.58,2.34,6.29,6.29,0,0,1,1.41,1.79,3.41,3.41,0,0,1,.27,2.48,4.87,4.87,0,0,1-1.28,2,9.54,9.54,0,0,1-1.75,1.39,24.24,24.24,0,0,1-3.82,2A96.14,96.14,0,0,1,97.46,93.3C92,94.46,86.52,95.38,81,96.23a1.8,1.8,0,1,1-.55-3.55h.11c5.48-.54,11-1.16,16.38-2A94,94,0,0,0,113,87a23.52,23.52,0,0,0,3.65-1.62,5.52,5.52,0,0,0,2.56-2.49c.39-1-.26-2.14-1.17-3a16.11,16.11,0,0,0-3.23-2.37,50.69,50.69,0,0,0-7.49-3.41Q103.39,72.64,99.39,71.53Z"/></svg>