<?xml version="1.0" standalone="no"?>
<!DOCTYPE svg PUBLIC "-//W3C//DTD SVG 20010904//EN"
 "http://www.w3.org/TR/2001/REC-SVG-20010904/DTD/svg10.dtd">
<svg version="1.0" xmlns="http://www.w3.org/2000/svg"
 width="3005.000000pt" height="365.000000pt" viewBox="0 0 3005.000000 365.000000"
 preserveAspectRatio="xMidYMid meet">

<g transform="translate(0.000000,365.000000) scale(0.100000,-0.100000)"
fill="#000000" stroke="none">
<path d="M1660 3633 c-103 -13 -290 -57 -394 -93 -586 -202 -1042 -694 -1197
-1290 -17 -63 -36 -160 -44 -215 -17 -117 -19 -374 -5 -495 14 -113 63 -311
106 -423 34 -88 140 -302 170 -342 18 -24 -29 -71 520 520 230 248 423 450
428 450 5 0 177 -238 383 -530 205 -291 482 -684 614 -872 l241 -342 42 16
c22 8 97 42 166 75 484 230 845 658 994 1181 51 175 60 256 60 497 1 192 -3
242 -22 342 -142 749 -717 1335 -1466 1494 -105 23 -150 26 -341 29 -121 2
-236 1 -255 -2z m501 -297 c67 -14 123 -27 126 -30 8 -7 43 32 -972 -1081
l-930 -1019 -27 90 c-127 406 -92 821 102 1203 180 358 513 645 902 779 270
94 526 112 799 58z m501 -180 c284 -161 509 -403 653 -700 161 -333 201 -680
121 -1037 -98 -431 -368 -796 -759 -1025 -50 -29 -95 -50 -98 -46 -16 17
-1131 1596 -1136 1608 -5 14 1112 1244 1131 1244 6 0 46 -20 88 -44z"/>
<path d="M22920 2982 c-302 -21 -548 -132 -754 -338 -228 -228 -339 -500 -337
-833 1 -331 120 -606 360 -834 148 -141 312 -232 510 -284 122 -32 369 -41
496 -18 231 42 417 135 589 296 238 223 366 517 366 846 0 317 -101 575 -314
801 -153 162 -344 277 -541 327 -113 29 -274 45 -375 37z m294 -286 c158 -44
256 -100 378 -215 191 -181 279 -388 279 -661 0 -261 -90 -479 -268 -651 -162
-156 -339 -233 -568 -245 -270 -15 -494 74 -682 269 -218 227 -297 534 -222
856 77 329 362 602 691 660 80 15 322 6 392 -13z"/>
<path d="M6570 1820 l0 -1130 140 0 140 0 0 333 1 332 205 220 c113 121 209
221 212 222 4 1 182 -247 397 -552 l390 -555 169 0 c166 0 168 0 155 20 -8 11
-218 308 -467 660 l-454 641 94 102 c122 132 717 786 742 815 l19 22 -179 -1
-179 0 -550 -606 -550 -605 -3 606 -2 606 -140 0 -140 0 0 -1130z"/>
<path d="M10292 2878 c-760 -1832 -902 -2176 -902 -2183 0 -3 66 -5 148 -5
l147 0 126 308 126 307 510 3 510 2 128 -310 128 -310 148 0 149 0 -9 23 c-5
12 -169 409 -366 882 -196 473 -402 971 -458 1107 l-102 248 -127 0 -126 0
-30 -72z m358 -826 c106 -260 191 -475 188 -477 -3 -3 -181 -4 -396 -3 l-391
3 197 482 c108 265 200 479 203 475 4 -4 93 -220 199 -480z"/>
<path d="M12828 1820 l2 -1130 710 0 710 0 0 130 0 130 -572 2 -573 3 -2 995
-3 995 -137 3 -138 3 3 -1131z"/>
<path d="M15558 1820 l2 -1130 135 0 135 0 0 330 0 329 211 226 c116 124 214
223 218 220 3 -4 179 -252 391 -553 l385 -547 168 -3 c92 -1 167 0 167 3 0 3
-22 36 -48 73 -218 302 -872 1234 -872 1241 0 9 89 108 648 719 l203 222 -179
0 -179 0 -549 -604 c-302 -333 -552 -605 -556 -605 -5 -1 -8 271 -8 604 l0
605 -137 0 -138 0 3 -1130z"/>
<path d="M18640 1820 l0 -1130 135 0 135 0 0 504 c0 455 2 504 16 510 9 3 279
6 600 6 l584 -1 0 -509 0 -510 140 0 140 0 0 1130 0 1130 -140 0 -140 0 0
-490 0 -490 -600 0 -600 0 0 490 0 490 -135 0 -135 0 0 -1130z"/>
<path d="M25590 1820 l0 -1130 140 0 140 0 2 508 3 507 503 3 502 2 0 130 0
130 -505 0 -505 0 0 360 0 360 635 0 635 0 0 130 0 130 -775 0 -775 0 0 -1130z"/>
<path d="M28490 1820 l0 -1130 140 0 140 0 2 508 3 507 508 3 507 2 0 130 0
130 -510 0 -510 0 0 360 0 360 635 0 635 0 0 130 0 130 -775 0 -775 0 0 -1130z"/>
</g>
</svg>
